<?xml version="1.0" standalone="no"?>
<!DOCTYPE svg PUBLIC "-//W3C//DTD SVG 20010904//EN"
 "http://www.w3.org/TR/2001/REC-SVG-20010904/DTD/svg10.dtd">
<svg version="1.0" xmlns="http://www.w3.org/2000/svg"
 width="512.000000pt" height="512.000000pt" viewBox="0 0 512.000000 512.000000"
 preserveAspectRatio="xMidYMid meet">

<g transform="translate(0.000000,512.000000) scale(0.100000,-0.100000)"
fill="#FED800" stroke="none">
<path d="M2365 5114 c-488 -50 -882 -190 -1258 -447 -124 -84 -147 -108 -147
-149 0 -39 7 -51 37 -67 37 -19 53 -13 152 58 137 98 217 145 376 222 600 289
1303 312 1929 63 671 -268 1206 -844 1399 -1509 80 -272 102 -429 102 -725 0
-296 -22 -453 -102 -725 -191 -657 -724 -1240 -1370 -1499 -274 -109 -529
-162 -844 -173 -605 -21 -1174 170 -1619 545 -468 393 -748 901 -842 1527 -8
58 -13 180 -13 340 1 273 14 383 76 622 60 235 173 487 307 688 77 115 100
145 220 285 28 33 52 70 52 80 0 33 -43 73 -79 73 -39 0 -72 -30 -179 -162
-469 -582 -653 -1309 -517 -2047 94 -510 334 -974 695 -1347 402 -415 870
-654 1457 -744 156 -23 556 -23 718 1 459 67 839 225 1200 499 111 85 321 292
418 412 603 748 755 1777 387 2627 -243 560 -683 1023 -1223 1288 -372 182
-686 258 -1092 265 -110 1 -218 1 -240 -1z"/>
<path d="M2885 4654 c-88 -19 -211 -78 -296 -142 -68 -52 -179 -166 -207 -215
-14 -23 -22 -27 -42 -22 -61 14 -122 16 -169 5 -46 -11 -53 -10 -75 8 -64 49
-189 54 -274 10 -48 -25 -51 -25 -106 -11 -45 11 -68 12 -109 3 -58 -12 -127
-49 -154 -82 -14 -19 -29 -23 -73 -24 -99 -2 -205 -68 -242 -149 -7 -15 -24
-27 -52 -34 -96 -24 -189 -116 -202 -201 -5 -30 -13 -40 -50 -60 -82 -43 -134
-127 -139 -223 -3 -53 -8 -64 -39 -96 -66 -68 -93 -176 -67 -267 7 -26 4 -42
-20 -89 -40 -80 -41 -169 -2 -247 26 -50 27 -56 15 -93 -28 -82 0 -191 68
-269 24 -26 30 -43 30 -78 0 -94 62 -199 144 -243 23 -13 36 -27 36 -40 0 -11
11 -44 25 -73 l25 -54 -34 -41 c-93 -115 -131 -293 -95 -442 44 -184 197 -344
370 -388 59 -16 55 -9 78 -125 34 -166 171 -317 346 -381 76 -28 211 -37 279
-19 l49 13 58 -56 c91 -90 238 -149 369 -149 114 0 243 47 332 121 l48 40 67
-41 c94 -57 159 -74 273 -74 108 1 203 28 290 84 62 40 145 130 173 187 l21
43 86 0 c50 0 109 7 141 16 284 83 454 390 367 660 -12 38 -22 73 -23 77 0 5
32 21 71 36 200 78 359 234 420 412 36 107 22 254 -38 372 l-19 39 25 36 c14
21 38 66 54 102 95 211 59 433 -96 588 l-63 64 15 68 c31 137 17 269 -41 384
-51 101 -179 208 -289 243 -46 14 -54 20 -54 41 0 44 -31 146 -62 205 -88 165
-246 262 -445 274 l-93 6 -31 56 c-66 117 -192 206 -334 236 -86 18 -149 18
-240 -1z m285 -173 c66 -35 95 -59 129 -106 17 -24 31 -45 31 -48 0 -2 -21
-12 -47 -22 -131 -49 -290 -166 -400 -297 -31 -36 -31 -36 -72 -24 -29 8 -46
21 -57 41 -40 79 -142 145 -221 145 -24 0 -43 3 -43 7 0 15 88 118 141 166 72
66 154 115 238 145 90 31 233 28 301 -7z m509 -290 c114 -35 203 -124 236
-235 22 -74 21 -76 -34 -76 -210 0 -489 -114 -653 -268 l-47 -44 -20 39 c-22
43 -89 109 -125 123 -17 6 -25 19 -30 47 -3 21 -13 51 -21 67 -14 27 -14 29
26 74 83 94 188 174 302 227 139 66 255 81 366 46z m-1692 -21 c15 -6 42 -27
60 -45 38 -42 79 -46 124 -13 37 27 95 30 132 5 15 -9 36 -35 47 -58 27 -52
57 -66 109 -51 51 16 76 15 111 -3 32 -16 60 -61 60 -94 0 -11 11 -32 23 -47
20 -23 31 -27 66 -26 55 2 108 -23 126 -59 8 -15 15 -51 15 -79 0 -41 5 -56
25 -75 13 -14 34 -25 45 -25 34 0 78 -28 95 -60 18 -35 19 -63 4 -105 -18 -49
-5 -82 46 -113 76 -46 95 -126 46 -189 -30 -37 -27 -79 7 -111 39 -37 52 -64
52 -111 0 -59 -29 -86 -110 -99 -206 -36 -425 -248 -568 -552 l-47 -99 -69 55
c-227 182 -485 209 -695 74 -157 -101 -279 -266 -306 -413 -6 -32 -11 -37 -35
-37 -44 0 -88 43 -106 106 -8 29 -21 57 -27 61 -7 4 -41 10 -76 14 -53 6 -68
12 -94 38 -28 27 -32 38 -33 92 -3 72 -17 92 -80 108 -82 21 -116 84 -88 163
19 55 5 93 -44 116 -74 36 -98 118 -52 182 34 47 29 83 -19 135 -61 67 -57
123 15 191 41 38 42 64 9 119 -44 71 -28 132 47 176 53 31 72 66 58 104 -5 14
-10 44 -10 67 0 53 46 102 107 111 55 9 73 36 73 105 0 48 4 58 34 88 33 33
48 38 112 34 41 -2 78 32 93 87 22 79 83 108 172 81 51 -15 85 0 105 47 30 72
121 97 184 50 47 -34 73 -32 123 14 58 53 81 60 134 41z m2048 -465 c135 -36
235 -117 275 -222 21 -58 28 -156 15 -227 -7 -32 -10 -37 -29 -31 -152 44
-175 48 -301 49 -146 1 -229 -12 -355 -57 -106 -37 -176 -72 -260 -131 l-65
-46 -18 23 c-10 13 -15 30 -11 42 3 11 8 50 11 87 6 73 -5 118 -42 172 l-24
35 67 66 c117 118 277 205 437 240 83 18 229 18 300 0z m57 -596 c147 -23 284
-88 341 -162 65 -85 92 -189 76 -290 -10 -59 -49 -160 -67 -171 -6 -3 -29 10
-53 30 -83 69 -125 79 -164 39 -17 -16 -25 -35 -25 -59 0 -31 7 -40 53 -74
189 -141 251 -319 168 -486 -63 -126 -203 -234 -363 -281 l-57 -16 -48 37
c-85 66 -216 114 -309 114 l-36 0 7 42 c13 75 7 290 -10 393 -10 55 -32 141
-50 193 -17 51 -29 95 -25 97 20 12 158 35 213 35 70 0 106 15 123 49 14 28 2
80 -23 99 -33 24 -218 8 -340 -29 l-65 -20 -34 40 c-19 22 -50 49 -69 61 -19
12 -35 26 -35 32 0 5 42 51 93 102 70 70 111 102 172 133 171 88 350 119 527
92z m-916 -450 c175 -44 307 -375 291 -729 -13 -288 -113 -482 -294 -571 -65
-33 -72 -34 -184 -34 -65 0 -120 3 -124 6 -3 4 -9 33 -12 64 -6 56 -6 57 15
46 40 -21 133 -24 202 -7 115 30 199 99 249 206 21 45 26 70 26 140 0 75 -4
93 -31 150 -89 186 -293 263 -478 181 -54 -24 -135 -97 -162 -146 -10 -19 -21
-35 -24 -35 -4 0 -21 21 -40 47 -32 46 -33 49 -21 93 19 69 95 224 156 315 57
86 181 212 237 241 39 20 106 42 131 43 10 1 38 -4 63 -10z m-1102 -454 c200
-52 404 -252 547 -536 67 -135 92 -221 93 -329 0 -85 -2 -101 -26 -146 -54
-103 -138 -148 -273 -148 -146 -1 -320 65 -513 194 -352 236 -467 527 -300
761 125 177 295 250 472 204z m1005 -235 c53 -26 97 -83 111 -141 46 -192
-188 -336 -336 -207 -56 49 -77 100 -72 174 3 50 10 72 33 106 59 82 177 113
264 68z m-1971 -111 c2 -5 18 -31 35 -56 42 -62 112 -105 180 -111 l52 -4 28
-85 27 -86 -65 -68 c-41 -44 -76 -94 -97 -139 -38 -80 -45 -83 -126 -45 -74
34 -115 68 -156 128 -94 140 -82 342 27 455 27 27 36 32 62 26 16 -4 32 -10
33 -15z m2577 -230 c246 -45 381 -301 277 -523 -37 -79 -100 -141 -182 -180
-58 -28 -75 -31 -155 -31 -82 0 -97 3 -157 33 -83 41 -158 120 -187 197 -29
77 -27 90 17 116 101 63 205 194 252 321 30 82 38 85 135 67z m-2090 -330 c44
-44 116 -107 161 -140 l80 -59 -17 -67 c-22 -84 -23 -147 -4 -237 8 -38 13
-72 10 -74 -2 -3 -39 -5 -82 -5 -148 0 -269 76 -335 211 -30 61 -33 74 -33
162 0 82 4 103 26 151 24 52 92 139 108 139 4 0 42 -36 86 -81z m1432 -131
c78 1 81 0 87 -24 30 -118 103 -230 196 -298 33 -24 65 -46 71 -48 16 -5 -28
-73 -77 -120 -22 -20 -64 -49 -94 -65 -49 -25 -65 -28 -155 -28 -87 0 -107 3
-157 27 -116 54 -203 171 -215 291 l-6 56 51 46 c33 30 63 70 83 111 l32 65
51 -7 c28 -4 88 -7 133 -6z m-927 -193 c124 -49 214 -67 330 -66 l96 0 12 -65
c7 -36 26 -92 42 -124 l30 -59 -46 -40 c-65 -57 -140 -83 -239 -84 -70 -1 -89
3 -147 30 -116 54 -192 151 -218 277 -11 53 -8 124 7 163 7 17 5 17 133 -32z"/>
<path d="M2210 3839 c-37 -10 -80 -50 -80 -74 0 -27 23 -63 47 -74 17 -8 36
-8 67 0 81 20 143 -27 153 -116 6 -52 31 -78 74 -78 49 0 74 33 73 98 -3 94
-71 194 -159 231 -46 19 -133 25 -175 13z"/>
<path d="M1280 3359 c-121 -54 -185 -188 -150 -313 11 -41 10 -49 -11 -92 -47
-98 -33 -211 37 -293 62 -72 123 -90 162 -48 35 37 29 80 -14 113 -80 62 -85
138 -13 206 36 33 36 57 3 114 -21 36 -25 53 -21 85 6 44 37 85 71 95 61 19
78 95 30 133 -33 26 -38 26 -94 0z"/>
<path d="M1920 2107 c-78 -18 -128 -47 -183 -106 -198 -211 -91 -541 195 -602
150 -32 318 52 388 194 94 192 5 421 -195 499 -59 23 -142 29 -205 15z m163
-160 c45 -20 104 -88 117 -139 41 -151 -101 -296 -253 -257 -187 47 -214 302
-42 392 37 20 134 22 178 4z"/>
</g>
</svg>
